<svg xmlns="http://www.w3.org/2000/svg" viewBox="66 93 84 94" fill="none">
  <path fill="#F7CE3E" d="m 106.83596,174.44641 c -9.523521,-9.70592 -11.500701,-12.95451 -10.701501,-17.58305 0.40297,-2.33378 2.00283,-5.76642 2.68756,-5.76642 0.0686,0 0.27133,0.61082 0.45043,1.35739 0.5993,2.49814 5.914921,9.48189 11.586151,15.22206 0.64613,0.65398 1.06929,0.36557 3.65394,-2.49039 20.42852,-22.57289 23.77896,-41.98068 8.96101,-51.90775 -15.57932,-10.43714 -36.609861,2.83998 -33.081721,20.88535 1.66172,8.49921 3.77199,11.10825 7.08067,8.7542 2.51041,-1.78609 2.50436,-1.73288 0.33615,-2.95654 -2.54159,-1.43438 -1.99709,-2.89467 0.92636,-2.48443 4.701721,0.65979 4.181321,0.75042 6.085421,-1.05986 0.94589,-0.89929 2.43145,-2.30276 3.30125,-3.11883 0.8698,-0.81607 1.48822,-1.57701 1.37426,-1.69097 -0.11396,-0.11396 -2.84968,-1.53359 -6.07938,-3.15472 -3.976991,-1.99624 -5.902511,-3.10151 -5.966191,-3.42467 -0.22676,-1.15084 1.95421,-1.77716 4.164361,-1.19589 0.52621,0.1384 2.32596,0.50448 3.99945,0.81353 3.66313,0.67648 5.31791,0.99961 6.81682,1.33114 2.53012,0.5596 2.89618,0.42676 5.3939,-1.95727 5.39624,-5.15064 10.65924,-5.61496 7.94444,-0.70089 -0.81499,1.47521 -2.1228,2.91406 -4.87547,5.36399 -2.00298,1.78267 -2.03373,1.89128 -1.53791,5.43053 0.13641,0.97376 0.37701,3.13969 0.53467,4.81318 0.15765,1.67349 0.42357,4.03247 0.59094,5.24216 0.57257,4.13839 -1.45263,6.21369 -2.7089,2.77592 -0.25549,-0.69916 -0.84678,-2.28323 -1.31397,-3.52016 -0.46719,-1.23693 -1.27654,-3.46935 -1.79855,-4.96094 -1.14734,-3.27841 -0.92936,-3.26231 -4.16446,-0.30759 -4.40987,4.02767 -3.93871,3.21236 -3.94767,6.83127 -0.007,2.99581 -0.0397,3.18149 -0.64359,3.70596 -0.84239,0.73154 -0.96413,0.7035 -1.33607,-0.30776 -1.47938,-4.02225 -1.42239,-4.01023 -4.39206,-0.92697 -2.947681,3.06044 -3.992651,4.42567 -4.811701,6.28639 -1.05371,2.3938 -1.1275,2.70723 -1.1275,4.78895 0,2.26102 -0.18236,2.42296 -0.94155,0.8361 -1.05054,-2.19584 -1.22804,-5.57771 -0.39946,-7.61104 0.54016,-1.32555 1.405556,-3.34202 2.10014,-4.17256 0.697287,-0.83378 1.08774,-1.40538 1.051012,-1.42986 -0.04062,-0.0271 -1.002053,0.3474 -1.751442,0.70946 -3.941552,1.90435 -7.81701,-0.21862 -9.75764,-5.34522 -0.79715,-2.10585 -0.98705,-2.77621 -1.70921,-6.03369 -3.63743,-16.40744 11.16259,-33.64434 28.847591,-33.59746 17.35466,0.046 31.97715,17.36881 28.31715,33.54644 -0.81816,3.61634 -0.97653,4.16786 -2.06609,7.19477 -0.90692,2.51954 -3.07764,7.21047 -4.28523,9.26042 -4.98321,8.4592 -10.36336,15.38577 -17.82905,22.95363 -4.80727,4.87306 -3.7599,4.91948 -8.97736,-0.39791 z"/>
</svg>